<svg width="241" height="240" viewBox="0 0 241 240" fill="none" xmlns="http://www.w3.org/2000/svg">
<path d="M87.5274 240L82.7313 201.6C80.1335 200.6 77.6855 199.4 75.3874 198C73.0893 196.6 70.8412 195.1 68.643 193.5L32.9726 208.5L0 151.5L30.8744 128.1C30.6745 126.7 30.5746 125.35 30.5746 124.05V115.95C30.5746 114.65 30.6745 113.3 30.8744 111.9L0 88.5L32.9726 31.5L68.643 46.5C70.8412 44.9 73.1393 43.4 75.5373 42C77.9353 40.6 80.3333 39.4 82.7313 38.4L87.5274 0H153.473L158.269 38.4C160.867 39.4 163.314 40.6 165.613 42C167.911 43.4 170.159 44.9 172.357 46.5L208.027 31.5L241 88.5L210.126 111.9C210.325 113.3 210.425 114.65 210.425 115.95V124.05C210.425 125.35 210.226 126.7 209.826 128.1L240.7 151.5L207.728 208.5L172.357 193.5C170.159 195.1 167.861 196.6 165.463 198C163.065 199.4 160.667 200.6 158.269 201.6L153.473 240H87.5274ZM108.51 216H132.19L136.387 184.2C142.582 182.6 148.327 180.25 153.623 177.15C158.918 174.05 163.764 170.3 168.16 165.9L197.836 178.2L209.526 157.8L183.748 138.3C184.747 135.5 185.446 132.55 185.846 129.45C186.245 126.35 186.445 123.2 186.445 120C186.445 116.8 186.245 113.65 185.846 110.55C185.446 107.45 184.747 104.5 183.748 101.7L209.526 82.2L197.836 61.8L168.16 74.4C163.764 69.8 158.918 65.95 153.623 62.85C148.327 59.75 142.582 57.4 136.387 55.8L132.49 24H108.81L104.613 55.8C98.4183 57.4 92.6731 59.75 87.3775 62.85C82.0819 65.95 77.2359 69.7 72.8396 74.1L43.1642 61.8L31.4739 82.2L57.2525 101.4C56.2533 104.4 55.5539 107.4 55.1542 110.4C54.7546 113.4 54.5547 116.6 54.5547 120C54.5547 123.2 54.7546 126.3 55.1542 129.3C55.5539 132.3 56.2533 135.3 57.2525 138.3L31.4739 157.8L43.1642 178.2L72.8396 165.6C77.2359 170.2 82.0819 174.05 87.3775 177.15C92.6731 180.25 98.4183 182.6 104.613 184.2L108.51 216ZM121.1 162C132.69 162 142.582 157.9 150.775 149.7C158.968 141.5 163.065 131.6 163.065 120C163.065 108.4 158.968 98.5 150.775 90.3C142.582 82.1 132.69 78 121.1 78C109.309 78 99.3675 82.1 91.2743 90.3C83.181 98.5 79.1343 108.4 79.1343 120C79.1343 131.6 83.181 141.5 91.2743 149.7C99.3675 157.9 109.309 162 121.1 162Z" fill="#3C82F6"/>
</svg>
