<svg width="244" height="244" viewBox="0 0 244 244" fill="none" xmlns="http://www.w3.org/2000/svg">
<mask id="path-1-outside-1_2313_300" maskUnits="userSpaceOnUse" x="0" y="0" width="238" height="238" fill="black">
<rect fill="white" width="238" height="238"/>
<path fill-rule="evenodd" clip-rule="evenodd" d="M133.738 30.5373L130.305 9.59704C130.295 9.54014 130.267 9.48323 130.219 9.4453C130.172 9.40736 130.106 9.38839 130.049 9.38839H107.951C107.894 9.38839 107.828 9.40736 107.781 9.4453C107.733 9.48323 107.705 9.54014 107.695 9.59704L104.234 30.6891H104.243C104.063 31.8082 103.209 32.6807 102.109 32.8988C90.6431 35.1275 79.7463 39.6417 70.0638 46.1666C69.0964 46.8115 67.8351 46.7641 66.9151 46.0528L49.6355 33.6479C49.5786 33.6099 49.5122 33.591 49.4553 33.6005C49.3984 33.6099 49.3415 33.6384 49.3036 33.6763L33.6837 49.2962V49.3057C33.6363 49.3436 33.6078 49.3911 33.5983 49.4575C33.5983 49.5144 33.6078 49.5807 33.6458 49.6282L46.1264 66.9929H46.1169C46.7713 67.9034 46.7998 69.1268 46.1738 70.0657C39.6395 79.7487 35.1346 90.6457 32.8964 102.111C32.6782 103.268 31.7109 104.15 30.5349 104.264L9.59458 107.697C9.53767 107.707 9.48077 107.735 9.44283 107.782C9.4049 107.83 9.38593 107.896 9.38593 107.953V130.051C9.38593 130.107 9.4049 130.174 9.44283 130.221C9.48077 130.269 9.53767 130.297 9.59458 130.307L30.6866 133.759C31.7962 133.939 32.6782 134.793 32.8964 135.893C35.1251 147.359 39.6393 158.255 46.1641 167.938C46.809 168.905 46.7616 170.167 46.0598 171.087L33.6454 188.366C33.6075 188.423 33.5885 188.49 33.598 188.546C33.6075 188.603 33.6359 188.66 33.6739 188.698L49.2938 204.318H49.3033C49.3412 204.366 49.3886 204.394 49.455 204.403C49.5119 204.413 49.5783 204.394 49.6257 204.356L66.9905 191.885C67.9009 191.23 69.1244 191.202 70.0632 191.828C79.7462 198.362 90.6432 202.867 102.109 205.105C103.266 205.324 104.148 206.291 104.271 207.467L107.704 228.407H107.695C107.704 228.464 107.733 228.521 107.78 228.559C107.827 228.597 107.894 228.616 107.951 228.616H130.048C130.105 228.616 130.171 228.597 130.219 228.559C130.266 228.521 130.295 228.464 130.304 228.407L133.766 207.315H133.756C133.936 206.196 134.79 205.324 135.89 205.105C147.356 202.877 158.253 198.363 167.936 191.838C168.903 191.193 170.164 191.24 171.084 191.942L188.364 204.356C188.421 204.394 188.487 204.413 188.544 204.404C188.601 204.394 188.658 204.366 188.696 204.328L204.316 188.708C204.363 188.661 204.391 188.613 204.401 188.556C204.401 188.49 204.391 188.423 204.354 188.376L191.873 171.011H191.882C191.228 170.101 191.2 168.877 191.825 167.948C198.36 158.265 202.874 147.359 205.103 135.893C205.321 134.736 206.288 133.854 207.464 133.731L228.405 130.297V130.307C228.462 130.297 228.519 130.269 228.556 130.222C228.594 130.174 228.613 130.108 228.613 130.051V107.953C228.613 107.897 228.594 107.83 228.556 107.783C228.519 107.735 228.462 107.707 228.405 107.697L207.313 104.245C206.203 104.065 205.321 103.211 205.103 102.111C202.874 90.6453 198.36 79.7486 191.835 70.066C191.19 69.0986 191.238 67.8373 191.939 66.9173L204.363 49.6377C204.401 49.5808 204.411 49.5144 204.411 49.4575C204.401 49.4006 204.373 49.3437 204.325 49.3058L188.706 33.6859C188.668 33.6385 188.611 33.61 188.554 33.6006C188.497 33.5911 188.43 33.61 188.374 33.648L171.009 46.1192C170.098 46.7736 168.875 46.802 167.946 46.1761C158.263 39.6417 147.356 35.1368 135.891 32.8986C134.733 32.6805 133.852 31.7134 133.738 30.5373ZM135.616 8.73214L138.774 27.9938H138.764C149.652 30.3553 160.018 34.6515 169.368 40.6833L185.225 29.2932C187.472 27.6715 190.554 27.9275 192.508 29.8812L208.128 45.5011C210.091 47.4548 210.338 50.537 208.716 52.7847L197.326 68.6321L197.316 68.6226C203.348 77.9832 207.644 88.3584 210.006 99.2355L229.268 102.384C231.999 102.82 234.009 105.182 234 107.951V130.049C234.009 132.818 231.999 135.179 229.268 135.616L210.006 138.764C207.644 149.642 203.348 160.008 197.316 169.368L208.707 185.225C210.328 187.472 210.072 190.554 208.118 192.508L192.499 208.128C190.545 210.091 187.453 210.338 185.215 208.716L169.368 197.316C160.007 203.348 149.641 207.644 138.764 210.006L135.616 229.268C135.18 231.999 132.818 234.009 130.049 234H107.951C105.182 234.009 102.82 231.999 102.384 229.268L99.2355 210.006C88.3575 207.644 77.9917 203.348 68.6323 197.316L52.7849 208.707V208.716C50.5468 210.338 47.4551 210.091 45.5014 208.128L29.8815 192.508C27.9278 190.554 27.6812 187.472 29.303 185.225L40.693 169.368C34.6612 160.017 30.3557 149.641 27.9941 138.764L8.73242 135.616C6.00108 135.18 3.99056 132.818 4.00003 130.049V107.951C3.99055 105.182 6.00113 102.82 8.73242 102.384L27.9941 99.226V99.2355C30.3556 88.348 34.6518 77.9823 40.6836 68.6323L29.2935 52.7849H29.284C27.6623 50.5468 27.9088 47.4551 29.872 45.5014L45.4919 29.8815C47.4456 27.9278 50.5278 27.6812 52.7755 29.303L68.6229 40.693H68.6134C77.974 34.6518 88.3492 30.3557 99.236 27.9941L102.385 8.73242C102.821 6.00108 105.182 3.99056 107.952 4.00003H130.049C132.818 3.99055 135.18 6.00084 135.616 8.73214Z"/>
</mask>
<path fill-rule="evenodd" clip-rule="evenodd" d="M133.738 30.5373L130.305 9.59704C130.295 9.54014 130.267 9.48323 130.219 9.4453C130.172 9.40736 130.106 9.38839 130.049 9.38839H107.951C107.894 9.38839 107.828 9.40736 107.781 9.4453C107.733 9.48323 107.705 9.54014 107.695 9.59704L104.234 30.6891H104.243C104.063 31.8082 103.209 32.6807 102.109 32.8988C90.6431 35.1275 79.7463 39.6417 70.0638 46.1666C69.0964 46.8115 67.8351 46.7641 66.9151 46.0528L49.6355 33.6479C49.5786 33.6099 49.5122 33.591 49.4553 33.6005C49.3984 33.6099 49.3415 33.6384 49.3036 33.6763L33.6837 49.2962V49.3057C33.6363 49.3436 33.6078 49.3911 33.5983 49.4575C33.5983 49.5144 33.6078 49.5807 33.6458 49.6282L46.1264 66.9929H46.1169C46.7713 67.9034 46.7998 69.1268 46.1738 70.0657C39.6395 79.7487 35.1346 90.6457 32.8964 102.111C32.6782 103.268 31.7109 104.15 30.5349 104.264L9.59458 107.697C9.53767 107.707 9.48077 107.735 9.44283 107.782C9.4049 107.83 9.38593 107.896 9.38593 107.953V130.051C9.38593 130.107 9.4049 130.174 9.44283 130.221C9.48077 130.269 9.53767 130.297 9.59458 130.307L30.6866 133.759C31.7962 133.939 32.6782 134.793 32.8964 135.893C35.1251 147.359 39.6393 158.255 46.1641 167.938C46.809 168.905 46.7616 170.167 46.0598 171.087L33.6454 188.366C33.6075 188.423 33.5885 188.49 33.598 188.546C33.6075 188.603 33.6359 188.66 33.6739 188.698L49.2938 204.318H49.3033C49.3412 204.366 49.3886 204.394 49.455 204.403C49.5119 204.413 49.5783 204.394 49.6257 204.356L66.9905 191.885C67.9009 191.23 69.1244 191.202 70.0632 191.828C79.7462 198.362 90.6432 202.867 102.109 205.105C103.266 205.324 104.148 206.291 104.271 207.467L107.704 228.407H107.695C107.704 228.464 107.733 228.521 107.78 228.559C107.827 228.597 107.894 228.616 107.951 228.616H130.048C130.105 228.616 130.171 228.597 130.219 228.559C130.266 228.521 130.295 228.464 130.304 228.407L133.766 207.315H133.756C133.936 206.196 134.79 205.324 135.89 205.105C147.356 202.877 158.253 198.363 167.936 191.838C168.903 191.193 170.164 191.24 171.084 191.942L188.364 204.356C188.421 204.394 188.487 204.413 188.544 204.404C188.601 204.394 188.658 204.366 188.696 204.328L204.316 188.708C204.363 188.661 204.391 188.613 204.401 188.556C204.401 188.49 204.391 188.423 204.354 188.376L191.873 171.011H191.882C191.228 170.101 191.2 168.877 191.825 167.948C198.36 158.265 202.874 147.359 205.103 135.893C205.321 134.736 206.288 133.854 207.464 133.731L228.405 130.297V130.307C228.462 130.297 228.519 130.269 228.556 130.222C228.594 130.174 228.613 130.108 228.613 130.051V107.953C228.613 107.897 228.594 107.83 228.556 107.783C228.519 107.735 228.462 107.707 228.405 107.697L207.313 104.245C206.203 104.065 205.321 103.211 205.103 102.111C202.874 90.6453 198.36 79.7486 191.835 70.066C191.19 69.0986 191.238 67.8373 191.939 66.9173L204.363 49.6377C204.401 49.5808 204.411 49.5144 204.411 49.4575C204.401 49.4006 204.373 49.3437 204.325 49.3058L188.706 33.6859C188.668 33.6385 188.611 33.61 188.554 33.6006C188.497 33.5911 188.43 33.61 188.374 33.648L171.009 46.1192C170.098 46.7736 168.875 46.802 167.946 46.1761C158.263 39.6417 147.356 35.1368 135.891 32.8986C134.733 32.6805 133.852 31.7134 133.738 30.5373ZM135.616 8.73214L138.774 27.9938H138.764C149.652 30.3553 160.018 34.6515 169.368 40.6833L185.225 29.2932C187.472 27.6715 190.554 27.9275 192.508 29.8812L208.128 45.5011C210.091 47.4548 210.338 50.537 208.716 52.7847L197.326 68.6321L197.316 68.6226C203.348 77.9832 207.644 88.3584 210.006 99.2355L229.268 102.384C231.999 102.82 234.009 105.182 234 107.951V130.049C234.009 132.818 231.999 135.179 229.268 135.616L210.006 138.764C207.644 149.642 203.348 160.008 197.316 169.368L208.707 185.225C210.328 187.472 210.072 190.554 208.118 192.508L192.499 208.128C190.545 210.091 187.453 210.338 185.215 208.716L169.368 197.316C160.007 203.348 149.641 207.644 138.764 210.006L135.616 229.268C135.18 231.999 132.818 234.009 130.049 234H107.951C105.182 234.009 102.82 231.999 102.384 229.268L99.2355 210.006C88.3575 207.644 77.9917 203.348 68.6323 197.316L52.7849 208.707V208.716C50.5468 210.338 47.4551 210.091 45.5014 208.128L29.8815 192.508C27.9278 190.554 27.6812 187.472 29.303 185.225L40.693 169.368C34.6612 160.017 30.3557 149.641 27.9941 138.764L8.73242 135.616C6.00108 135.18 3.99056 132.818 4.00003 130.049V107.951C3.99055 105.182 6.00113 102.82 8.73242 102.384L27.9941 99.226V99.2355C30.3556 88.348 34.6518 77.9823 40.6836 68.6323L29.2935 52.7849H29.284C27.6623 50.5468 27.9088 47.4551 29.872 45.5014L45.4919 29.8815C47.4456 27.9278 50.5278 27.6812 52.7755 29.303L68.6229 40.693H68.6134C77.974 34.6518 88.3492 30.3557 99.236 27.9941L102.385 8.73242C102.821 6.00108 105.182 3.99056 107.952 4.00003H130.049C132.818 3.99055 135.18 6.00084 135.616 8.73214Z" fill="#3C82F6"/>
<path fill-rule="evenodd" clip-rule="evenodd" d="M133.738 30.5373L130.305 9.59704C130.295 9.54014 130.267 9.48323 130.219 9.4453C130.172 9.40736 130.106 9.38839 130.049 9.38839H107.951C107.894 9.38839 107.828 9.40736 107.781 9.4453C107.733 9.48323 107.705 9.54014 107.695 9.59704L104.234 30.6891H104.243C104.063 31.8082 103.209 32.6807 102.109 32.8988C90.6431 35.1275 79.7463 39.6417 70.0638 46.1666C69.0964 46.8115 67.8351 46.7641 66.9151 46.0528L49.6355 33.6479C49.5786 33.6099 49.5122 33.591 49.4553 33.6005C49.3984 33.6099 49.3415 33.6384 49.3036 33.6763L33.6837 49.2962V49.3057C33.6363 49.3436 33.6078 49.3911 33.5983 49.4575C33.5983 49.5144 33.6078 49.5807 33.6458 49.6282L46.1264 66.9929H46.1169C46.7713 67.9034 46.7998 69.1268 46.1738 70.0657C39.6395 79.7487 35.1346 90.6457 32.8964 102.111C32.6782 103.268 31.7109 104.15 30.5349 104.264L9.59458 107.697C9.53767 107.707 9.48077 107.735 9.44283 107.782C9.4049 107.83 9.38593 107.896 9.38593 107.953V130.051C9.38593 130.107 9.4049 130.174 9.44283 130.221C9.48077 130.269 9.53767 130.297 9.59458 130.307L30.6866 133.759C31.7962 133.939 32.6782 134.793 32.8964 135.893C35.1251 147.359 39.6393 158.255 46.1641 167.938C46.809 168.905 46.7616 170.167 46.0598 171.087L33.6454 188.366C33.6075 188.423 33.5885 188.49 33.598 188.546C33.6075 188.603 33.6359 188.66 33.6739 188.698L49.2938 204.318H49.3033C49.3412 204.366 49.3886 204.394 49.455 204.403C49.5119 204.413 49.5783 204.394 49.6257 204.356L66.9905 191.885C67.9009 191.23 69.1244 191.202 70.0632 191.828C79.7462 198.362 90.6432 202.867 102.109 205.105C103.266 205.324 104.148 206.291 104.271 207.467L107.704 228.407H107.695C107.704 228.464 107.733 228.521 107.78 228.559C107.827 228.597 107.894 228.616 107.951 228.616H130.048C130.105 228.616 130.171 228.597 130.219 228.559C130.266 228.521 130.295 228.464 130.304 228.407L133.766 207.315H133.756C133.936 206.196 134.79 205.324 135.89 205.105C147.356 202.877 158.253 198.363 167.936 191.838C168.903 191.193 170.164 191.24 171.084 191.942L188.364 204.356C188.421 204.394 188.487 204.413 188.544 204.404C188.601 204.394 188.658 204.366 188.696 204.328L204.316 188.708C204.363 188.661 204.391 188.613 204.401 188.556C204.401 188.49 204.391 188.423 204.354 188.376L191.873 171.011H191.882C191.228 170.101 191.2 168.877 191.825 167.948C198.36 158.265 202.874 147.359 205.103 135.893C205.321 134.736 206.288 133.854 207.464 133.731L228.405 130.297V130.307C228.462 130.297 228.519 130.269 228.556 130.222C228.594 130.174 228.613 130.108 228.613 130.051V107.953C228.613 107.897 228.594 107.83 228.556 107.783C228.519 107.735 228.462 107.707 228.405 107.697L207.313 104.245C206.203 104.065 205.321 103.211 205.103 102.111C202.874 90.6453 198.36 79.7486 191.835 70.066C191.19 69.0986 191.238 67.8373 191.939 66.9173L204.363 49.6377C204.401 49.5808 204.411 49.5144 204.411 49.4575C204.401 49.4006 204.373 49.3437 204.325 49.3058L188.706 33.6859C188.668 33.6385 188.611 33.61 188.554 33.6006C188.497 33.5911 188.43 33.61 188.374 33.648L171.009 46.1192C170.098 46.7736 168.875 46.802 167.946 46.1761C158.263 39.6417 147.356 35.1368 135.891 32.8986C134.733 32.6805 133.852 31.7134 133.738 30.5373ZM135.616 8.73214L138.774 27.9938H138.764C149.652 30.3553 160.018 34.6515 169.368 40.6833L185.225 29.2932C187.472 27.6715 190.554 27.9275 192.508 29.8812L208.128 45.5011C210.091 47.4548 210.338 50.537 208.716 52.7847L197.326 68.6321L197.316 68.6226C203.348 77.9832 207.644 88.3584 210.006 99.2355L229.268 102.384C231.999 102.82 234.009 105.182 234 107.951V130.049C234.009 132.818 231.999 135.179 229.268 135.616L210.006 138.764C207.644 149.642 203.348 160.008 197.316 169.368L208.707 185.225C210.328 187.472 210.072 190.554 208.118 192.508L192.499 208.128C190.545 210.091 187.453 210.338 185.215 208.716L169.368 197.316C160.007 203.348 149.641 207.644 138.764 210.006L135.616 229.268C135.18 231.999 132.818 234.009 130.049 234H107.951C105.182 234.009 102.82 231.999 102.384 229.268L99.2355 210.006C88.3575 207.644 77.9917 203.348 68.6323 197.316L52.7849 208.707V208.716C50.5468 210.338 47.4551 210.091 45.5014 208.128L29.8815 192.508C27.9278 190.554 27.6812 187.472 29.303 185.225L40.693 169.368C34.6612 160.017 30.3557 149.641 27.9941 138.764L8.73242 135.616C6.00108 135.18 3.99056 132.818 4.00003 130.049V107.951C3.99055 105.182 6.00113 102.82 8.73242 102.384L27.9941 99.226V99.2355C30.3556 88.348 34.6518 77.9823 40.6836 68.6323L29.2935 52.7849H29.284C27.6623 50.5468 27.9088 47.4551 29.872 45.5014L45.4919 29.8815C47.4456 27.9278 50.5278 27.6812 52.7755 29.303L68.6229 40.693H68.6134C77.974 34.6518 88.3492 30.3557 99.236 27.9941L102.385 8.73242C102.821 6.00108 105.182 3.99056 107.952 4.00003H130.049C132.818 3.99055 135.18 6.00084 135.616 8.73214Z" stroke="white" stroke-width="8" mask="url(#path-1-outside-1_2313_300)"/>
<g filter="url(#filter0_d_2313_300)">
<path d="M79.7881 66C82.633 70.5809 86.541 76.9816 89.8232 82.3818C91.5792 85.2709 93.1551 87.871 94.292 89.749C94.8604 90.6879 95.3192 91.4461 95.6357 91.9697C95.794 92.2314 95.9169 92.4347 96 92.5723C96.0415 92.641 96.0735 92.6933 96.0947 92.7285C96.1053 92.7459 96.1128 92.7597 96.1182 92.7686C96.1206 92.7727 96.1227 92.7761 96.124 92.7783C96.1247 92.7794 96.1256 92.7807 96.126 92.7812V92.7822C96.1261 92.7824 96.1323 92.7787 97.8389 91.748L96.127 92.7822L97.7832 95.5254L99.5195 92.832L116.587 66.3604H134.758V111.635L137.968 109.197L144.447 104.275L118.938 126.937V88.8164L115.28 94.2324L98.1982 119.525L81.1172 94.2324L77.46 88.8164V134.434H62V66H79.7881Z" fill="black" stroke="white" stroke-width="4"/>
<path d="M160.183 113.929C175.881 113.929 184.802 125.793 185.347 137.785C185.619 143.77 183.786 149.667 179.743 154.052C175.725 158.41 169.354 161.459 160.183 161.459H147.371V182H131.19V130.27L127.991 132.669L108.735 147.11L145.812 113.929H160.183Z" fill="black" stroke="white" stroke-width="4"/>
<path d="M158.74 130.868C164.719 130.868 167.584 134.725 167.688 138.295C167.74 140.116 167.087 141.905 165.708 143.245C164.339 144.576 162.101 145.607 158.74 145.607H151.011V130.868H158.74Z" fill="black" stroke="white" stroke-width="4"/>
</g>
<defs>
<filter id="filter0_d_2313_300" x="60" y="64" width="129.373" height="122" filterUnits="userSpaceOnUse" color-interpolation-filters="sRGB">
<feFlood flood-opacity="0" result="BackgroundImageFix"/>
<feColorMatrix in="SourceAlpha" type="matrix" values="0 0 0 0 0 0 0 0 0 0 0 0 0 0 0 0 0 0 127 0" result="hardAlpha"/>
<feOffset dx="1" dy="1"/>
<feGaussianBlur stdDeviation="0.5"/>
<feComposite in2="hardAlpha" operator="out"/>
<feColorMatrix type="matrix" values="0 0 0 0 0 0 0 0 0 0 0 0 0 0 0 0 0 0 0.25 0"/>
<feBlend mode="normal" in2="BackgroundImageFix" result="effect1_dropShadow_2313_300"/>
<feBlend mode="normal" in="SourceGraphic" in2="effect1_dropShadow_2313_300" result="shape"/>
</filter>
</defs>
</svg>
